HIERARCHY
ROOT ui
{
	 OFFSET 0 0 0
	 CHANNELS 3 XPosition YPosition Z Position
	 EndSite
	 {
	 OFFSET 0 -1 0
	 }
}
ROOT li
{
	 OFFSET 0 0 0
	 CHANNELS 3 XPosition YPosition Z Position
	 EndSite
	 {
	 OFFSET 0 -1 0
	 }
}
ROOT ul
{
	 OFFSET 0 0 0
	 CHANNELS 3 XPosition YPosition Z Position
	 EndSite
	 {
	 OFFSET 0 -1 0
	 }
}
ROOT ll
{
	 OFFSET 0 0 0
	 CHANNELS 3 XPosition YPosition Z Position
	 EndSite
	 {
	 OFFSET 0 -1 0
	 }
}
ROOT tt
{
	 OFFSET 0 0 0
	 CHANNELS 3 XPosition YPosition Z Position
	 EndSite
	 {
	 OFFSET 0 -1 0
	 }
}
ROOT tb
{
	 OFFSET 0 0 0
	 CHANNELS 3 XPosition YPosition Z Position
	 EndSite
	 {
	 OFFSET 0 -1 0
	 }
}
ROOT td
{
	 OFFSET 0 0 0
	 CHANNELS 3 XPosition YPosition Z Position
	 EndSite
	 {
	 OFFSET 0 -1 0
	 }
}
ROOT v
{
	 OFFSET 0 0 0
	 CHANNELS 3 XPosition YPosition Z Position
	 EndSite
	 {
	 OFFSET 0 -1 0
	 }
}
ROOT bn
{
	 OFFSET 0 0 0
	 CHANNELS 3 XPosition YPosition Z Position
	 EndSite
	 {
	 OFFSET 0 -1 0
	 }
}
MOTION
Frames: 27
Frame Time: 0.002
0.014844268798828124	0.0032911970615386965	0		0.512250244140625	-2.51023388671875	0		-0.9658953857421875	-0.14179420471191406	0		-0.6776947021484375	-2.4962685546875	0		1.9369949951171874	-1.1683592529296876	0		3.6476728515625	-0.8379306640625	0		4.87556005859375	-0.6140787353515625	0		5.84914453125	0.2480470428466797	0		-0.16270689392089843	5.8782548828125	0		
0.018478115081787108	0.006975564002990722	0		0.5158793334960937	-2.505551513671875	0		-0.9572420654296875	-0.13413113403320312	0		-0.60612158203125	-2.50292236328125	0		1.95769921875	-1.149767822265625	0		3.630163330078125	-0.86215478515625	0		4.88113671875	-0.6214224853515625	0		5.84876953125	0.24972872924804687	0		-0.1630651092529297	5.87896044921875	0		
0.019080942153930663	-3.1344899535179136E-4	0		0.5134990844726562	-2.506828125	0		-0.9925792846679687	-0.12923435974121095	0		-0.6974605712890625	-2.495746337890625	0		1.9394368896484375	-1.1289720458984376	0		3.647821533203125	-0.85754833984375	0		4.854767578125	-0.6226005249023437	0		5.85245361328125	0.2583937072753906	0		-0.19842083740234376	5.87385302734375	0		
0.014740266799926759	-0.002571803092956543	0		0.5331962890625	-2.498210693359375	0		-0.8728922119140625	-0.1261094741821289	0		-0.6398240966796875	-2.4993115234375	0		1.9142396240234374	-1.1011383056640625	0		3.60652587890625	-0.8496455688476563	0		4.86535302734375	-0.6389658203125	0		5.85708984375	0.25105030822753904	0		-0.2147564239501953	5.86465673828125	0		
0.006454160213470459	-8.105459809303284E-4	0		0.467949951171875	-2.4841669921875	0		-1.00819287109375	-0.12670079040527343	0		-0.6791312255859375	-2.497388427734375	0		1.90796923828125	-1.0944034423828124	0		3.600212158203125	-0.8519251708984374	0		4.84803759765625	-0.6421990966796876	0		5.8518408203125	0.2597462158203125	0		-0.214997314453125	5.86537939453125	0		
0.02318641471862793	-0.002181741952896118	0		0.5165853881835938	-2.4997041015625	0		-0.960411865234375	-0.11821807861328125	0		-0.623521240234375	-2.51794921875	0		1.89785205078125	-1.063658447265625	0		3.62789501953125	-0.8613890380859375	0		4.83679541015625	-0.6374771728515625	0		5.8695810546875	0.25930935668945315	0		-0.19814871215820312	5.87501025390625	0		
0.025973604202270507	0.0015054349899291993	0		0.48541375732421876	-2.48185107421875	0		-1.0025546264648437	-0.10029154205322266	0		-0.632728759765625	-2.507193603515625	0		1.89768212890625	-1.048978759765625	0		3.586783935546875	-0.8355228881835938	0		4.83758203125	-0.6328353881835938	0		5.86943701171875	0.275941162109375	0		-0.16427093505859375	5.88254345703125	0		
0.017771352767944337	0.0032309460639953613	0		0.5291771850585938	-2.480395751953125	0		-0.920749267578125	-0.09700873565673829	0		-0.6529851684570313	-2.509398193359375	0		1.87955712890625	-1.0292281494140625	0		3.580463623046875	-0.8548555297851562	0		4.83728173828125	-0.6492127685546875	0		5.86419287109375	0.2685723876953125	0		-0.21647409057617187	5.8684951171875	0		
-0.03948432159423828	-0.006816720962524414	0		0.4729658203125	-2.474456298828125	0		-0.9958840942382813	-0.08295110321044921	0		-0.6523045654296875	-2.52473095703125	0		1.8615093994140626	-0.9955026245117188	0		3.565291259765625	-0.8461703491210938	0		4.81006884765625	-0.649482177734375	0		5.8599609375	0.26216769409179685	0		-0.18155686950683594	5.874982421875	0		
0.014306414604187011	-0.006457517147064209	0		0.5286912231445312	-2.479115478515625	0		-0.9930326538085937	-0.07031629180908203	0		-0.6476253051757812	-2.538111572265625	0		1.8583359375	-0.98488330078125	0		3.584033203125	-0.8526905517578125	0		4.80978076171875	-0.6629221801757812	0		5.8637919921875	0.2696867980957031	0		-0.2527257232666016	5.86498193359375	0		
-0.04489665603637695	-5.541260242462158E-4	0		0.4764664306640625	-2.4692568359375	0		-0.9761866455078125	-0.05478512573242188	0		-0.629990234375	-2.555591064453125	0		1.8631922607421876	-0.9643392944335938	0		3.55691259765625	-0.8280120849609375	0		4.78656884765625	-0.6572813720703125	0		5.87256201171875	0.2691424560546875	0		-0.1667436981201172	5.88714697265625	0		
0.021852882385253906	0.001667646050453186	0		0.5361627807617187	-2.469008056640625	0		-0.9762932739257812	-0.02420318603515625	0		-0.6613404541015625	-2.563855224609375	0		1.85406982421875	-0.9337605590820313	0		3.56055615234375	-0.843529052734375	0		4.7932744140625	-0.6618318481445312	0		5.87735302734375	0.27857968139648437	0		-0.16789584350585937	5.888720703125	0		
-0.040479103088378904	-0.004486776828765869	0		0.49193209838867186	-2.4472646484375	0		-0.974482177734375	-0.002670680999755859	0		-0.6217801513671875	-2.582523681640625	0		1.83987060546875	-0.9111946411132813	0		3.56436328125	-0.8200855712890625	0		4.78098974609375	-0.657323486328125	0		5.8770615234375	0.27900390625	0		-0.18314698791503906	5.8783271484375	0		
0.013182920455932617	-0.004281092166900635	0		0.5175272827148437	-2.4519228515625	0		-0.9867674560546875	0.007892113208770752	0		-0.6202490234375	-2.599038818359375	0		1.8137718505859375	-0.8616075439453125	0		3.548960693359375	-0.829583740234375	0		4.77763330078125	-0.658901123046875	0		5.87672900390625	0.27938882446289065	0		-0.18537432861328124	5.88082470703125	0		
-0.041194610595703125	-0.0035605130195617675	0		0.46314627075195314	-2.444210693359375	0		-0.9790626220703125	0.02430698776245117	0		-0.6177525634765625	-2.614603515625	0		1.8163951416015625	-0.8582120971679688	0		3.504548828125	-0.8329725341796875	0		4.7412734375	-0.6533482666015625	0		5.87635546875	0.2797337951660156	0		-0.21969273376464843	5.87444482421875	0		
0.012388168334960937	-0.003445251941680908	0		0.4667182922363281	-2.438843017578125	0		-0.98239013671875	0.04173310089111328	0		-0.683223876953125	-2.616860107421875	0		1.7910699462890625	-0.8377144165039062	0		3.553030517578125	-0.849885498046875	0		4.73776611328125	-0.6690064697265625	0		5.88402099609375	0.2949974365234375	0		-0.1889100799560547	5.8956826171875	0		
-0.03100240707397461	0.008129375457763672	0		0.4722718200683594	-2.431530517578125	0		-0.96973388671875	0.062029361724853516	0		-0.6207048950195313	-2.61582861328125	0		1.790745361328125	-0.8113895263671875	0		3.4998212890625	-0.80130908203125	0		4.731373046875	-0.656688720703125	0		5.89257666015625	0.295218017578125	0		-0.17029661560058593	5.8919365234375	0		
0.011468079566955567	-0.0027898199558258055	0		0.48878549194335935	-2.428320068359375	0		-0.9761783447265625	0.06737799835205079	0		-0.7052235717773437	-2.618076171875	0		1.8273782958984375	-0.7893004760742187	0		3.499224609375	-0.8230471801757813	0		4.724869140625	-0.6614085693359375	0		5.879072265625	0.28851788330078126	0		-0.18774147033691407	5.8833330078125	0		
-0.04301377487182617	-0.00224739408493042	0		0.4793193664550781	-2.420018798828125	0		-0.967618408203125	0.07560047912597656	0		-0.6327766723632813	-2.62619189453125	0		1.7959508056640625	-0.77689794921875	0		3.482775634765625	-0.8147408447265625	0		4.7112919921875	-0.67812841796875	0		5.88355078125	0.2806893005371094	0		-0.18815679931640625	5.88459423828125	0		
0.010506874084472656	-0.002317275047302246	0		0.4528471374511719	-2.414673095703125	0		-1.0380533447265625	0.08418927764892578	0		-0.7082446899414062	-2.61957958984375	0		1.7905706787109374	-0.7566737060546875	0		3.499263671875	-0.8196458740234375	0		4.7058984375	-0.6609268798828125	0		5.87811669921875	0.28887945556640626	0		-0.18858612060546875	5.88480908203125	0		
0.010050321578979492	-0.0021502649784088134	0		0.4653549499511719	-2.418576904296875	0		-1.0294727783203126	0.09131516265869141	0		-0.6937381591796875	-2.623487060546875	0		1.759241455078125	-0.731354736328125	0		3.469939208984375	-0.7933477172851563	0		4.69941259765625	-0.6657551879882813	0		5.8906982421875	0.29594290161132814	0		-0.20898085021972657	5.89008251953125	0		
0.017671218872070314	0.004928834915161133	0		0.45999942016601564	-2.40543115234375	0		-1.0208463134765624	0.09939249420166016	0		-0.701099609375	-2.611326904296875	0		1.7859281005859375	-0.7113816528320313	0		3.487436279296875	-0.8093325805664062	0		4.6900478515625	-0.655601806640625	0		5.8943310546875	0.305023193359375	0		-0.17633517456054687	5.89803076171875	0		
0.009275950431823731	-0.0019528969526290893	0		0.5136021728515625	-2.41263916015625	0		-0.9471795043945312	0.10407975006103516	0		-0.6305076904296875	-2.620623779296875	0		1.7606746826171875	-0.6911751708984375	0		3.497161376953125	-0.7933109130859375	0		4.69263134765625	-0.6665435180664062	0		5.90388818359375	0.28904409790039065	0		-0.19174859619140625	5.88718603515625	0		
0.008987966537475587	-0.0019215760231018066	0		0.44838992309570314	-2.399264892578125	0		-0.9444047241210938	0.11609254455566406	0		-0.6307886352539063	-2.62059423828125	0		1.7784356689453125	-0.68223388671875	0		3.45388671875	-0.7910441284179688	0		4.67936572265625	-0.6624317626953125	0		5.89368359375	0.30514370727539064	0		-0.19304194641113281	5.88922216796875	0		
0.005760135173797608	-0.005918683052062989	0		0.5061812133789062	-2.40257958984375	0		-1.01859033203125	0.12046233367919922	0		-0.6679684448242188	-2.618416748046875	0		1.7613277587890626	-0.66414697265625	0		3.454721435546875	-0.7840413208007813	0		4.66618310546875	-0.65834912109375	0		5.889427734375	0.29618795776367185	0		-0.17922735595703124	5.90013427734375	0		
0.008663687705993652	-0.001990483045578003	0		0.43510919189453123	-2.3982587890625	0		-1.0456456298828125	0.1325376739501953	0		-0.7040335693359375	-2.613290771484375	0		1.7672586669921875	-0.6562174072265625	0		3.4575224609375	-0.8010791015625	0		4.64714453125	-0.6442620849609375	0		5.90334912109375	0.3041159362792969	0		-0.17741294860839843	5.89806591796875	0		
0.016678504943847657	0.004870450973510742	0		0.46018759155273437	-2.38548095703125	0		-1.03562744140625	0.1403738555908203	0		-0.6999990234375	-2.60941845703125	0		1.76234521484375	-0.6372648315429688	0		3.451658203125	-0.7730985717773438	0		4.642197265625	-0.631273193359375	0		5.88937060546875	0.3131717224121094	0		-0.17950404357910157	5.8999765625	0		
